<svg xmlns="http://www.w3.org/2000/svg" width="280" height="112" viewBox="0 0 280 112" fill="none">
<g transform="translate(24,24) scale(0.231047)"><path d="M92.6487 113.132L122.879 131.038L234.502 65.9425L163.219 23.8403L81.3986 71.6359L71.252 65.1808L151.298 17.6758L121.644 0L9.43741 64.8869L81.9047 106.914L163.219 59.5159L173.648 65.9425L92.6487 113.132Z" fill="#ECE7DF"></path>
<path d="M112.602 180.928V145.514L0 80.1171V163.702C0 163.702 77.5055 174.174 81.4499 210.681C81.9746 215.537 81.4499 223.188 81.4499 223.188L0 175.392V211.99L112.539 276.674L112.602 192.598L31.5724 145.514V134.266L112.602 180.928Z" fill="#ECE7DF"></path>
<path d="M129.602 180.928V145.514L242.205 80.1171V163.702L160.755 210.681V223.188L242.205 175.392V211.99L129.665 276.674L129.602 192.598L210.632 145.514C210.632 145.514 211.116 138.632 210.632 134.266C206.608 97.9724 129.602 180.928 129.602 180.928Z" fill="#ECE7DF"></path></g>
<text x="98.144" y="56" font-family="Inter, &#39;Helvetica Neue&#39;, Helvetica, Arial, sans-serif" font-size="14" font-weight="300" letter-spacing="2.8" fill="#ECE7DF" dominant-baseline="middle">SCHEMA 52</text></svg>